<?xml version="1.0" standalone="no"?>
<!DOCTYPE svg PUBLIC "-//W3C//DTD SVG 20010904//EN"
 "http://www.w3.org/TR/2001/REC-SVG-20010904/DTD/svg10.dtd">
<svg version="1.0" xmlns="http://www.w3.org/2000/svg"
 width="976.000000pt" height="976.000000pt" viewBox="0 0 976.000000 976.000000"
 preserveAspectRatio="xMidYMid meet">
<metadata>
Created by potrace 1.14, written by Peter Selinger 2001-2017
</metadata>
<g transform="translate(0.000000,976.000000) scale(0.100000,-0.100000)"
fill="#000000" stroke="none">
<path d="M2480 7394 c-12 -24 -27 -44 -31 -44 -5 0 -9 -9 -9 -19 0 -11 -5 -23
-10 -26 -6 -4 -20 -25 -31 -48 -12 -23 -25 -44 -29 -47 -4 -3 -9 -10 -11 -15
-2 -6 -53 -91 -112 -190 -132 -220 -125 -207 -164 -271 -18 -29 -33 -55 -33
-58 0 -2 -17 -31 -39 -63 -21 -32 -41 -68 -45 -80 -4 -13 -12 -23 -17 -23 -5
0 -9 -4 -9 -9 0 -5 -29 -58 -65 -117 -36 -60 -70 -116 -74 -124 -5 -8 -132
-219 -283 -469 -304 -506 -285 -474 -316 -527 -12 -22 -28 -48 -35 -58 -39
-63 -77 -126 -77 -130 0 -3 -13 -24 -29 -48 -15 -24 -39 -62 -52 -85 -41 -73
-188 -318 -197 -328 -4 -5 -23 -37 -42 -70 -19 -33 -37 -61 -42 -63 -4 -2 -8
-8 -8 -13 0 -10 -68 -127 -135 -234 -38 -60 -91 -149 -115 -190 -9 -16 -56
-94 -104 -173 -47 -79 -86 -147 -86 -151 0 -4 -9 -16 -20 -26 -11 -10 -20 -22
-20 -27 0 -12 -133 -232 -142 -236 -5 -2 -8 -8 -8 -14 0 -12 -72 -132 -83
-136 -4 -2 -5 -8 -1 -13 5 -9 5004 -14 5004 -4 0 2 -53 92 -117 200 -65 107
-125 208 -133 223 -8 14 -32 52 -52 84 -21 31 -38 59 -38 61 0 3 -49 86 -110
187 -60 100 -110 186 -110 191 0 5 -4 9 -10 9 -5 0 -10 4 -10 10 0 5 -15 33
-33 62 -18 29 -41 70 -52 91 -11 20 -23 37 -27 37 -5 0 -8 4 -8 8 0 5 -31 60
-70 123 -38 63 -81 134 -95 159 -52 93 -64 112 -81 131 -9 10 -14 19 -11 19 3
0 -10 24 -29 53 -19 28 -40 64 -47 80 -6 15 -15 27 -19 27 -5 0 -8 4 -8 9 0 5
-18 38 -40 72 -22 35 -43 71 -47 79 -4 8 -18 33 -32 55 -14 22 -31 50 -38 63
-7 12 -19 32 -26 45 -7 12 -24 40 -39 63 -14 23 -35 56 -45 75 -10 19 -31 53
-46 76 -15 24 -27 47 -27 53 0 5 -4 10 -10 10 -5 0 -10 4 -10 8 0 5 -24 48
-52 96 -29 48 -57 94 -63 104 -5 9 -31 52 -57 95 -27 43 -48 81 -48 85 0 5 -5
13 -12 20 -7 7 -26 36 -43 65 -16 30 -66 113 -110 186 -44 73 -88 146 -97 162
-10 16 -27 44 -38 62 -11 17 -30 49 -42 71 -13 21 -27 46 -33 55 -23 37 -114
188 -131 218 -11 17 -62 103 -114 190 -52 87 -96 164 -98 171 -2 6 -8 12 -13
12 -5 0 -9 4 -9 9 0 5 -22 46 -50 91 -27 45 -50 84 -50 86 0 3 -6 11 -13 19
-11 10 -17 5 -37 -31z"/>
<path d="M4626 6453 c15 -27 32 -57 38 -68 6 -11 14 -22 17 -25 3 -3 23 -34
43 -70 63 -110 84 -145 93 -156 8 -10 27 -42 48 -79 6 -11 23 -39 38 -62 15
-24 27 -44 27 -47 0 -2 18 -33 39 -67 43 -70 167 -276 191 -318 8 -14 37 -62
63 -106 27 -44 52 -87 57 -95 5 -8 58 -97 119 -198 61 -100 111 -186 111 -191
0 -5 4 -11 8 -13 5 -1 23 -30 42 -63 18 -33 39 -67 45 -75 7 -8 21 -31 32 -50
39 -73 198 -335 205 -338 5 -2 8 -8 8 -13 0 -5 32 -60 70 -123 39 -63 70 -119
70 -124 0 -6 4 -12 8 -14 4 -1 21 -25 36 -53 16 -27 44 -73 62 -102 19 -28 34
-54 34 -57 0 -3 21 -40 48 -83 56 -92 62 -101 104 -173 17 -30 35 -56 40 -58
4 -2 8 -8 8 -12 0 -5 46 -84 101 -177 56 -92 109 -180 118 -196 9 -15 49 -81
89 -147 39 -66 72 -125 72 -130 0 -6 5 -10 10 -10 6 0 10 -4 10 -8 0 -9 233
-399 250 -419 5 -7 10 -15 10 -18 0 -3 23 -42 50 -86 28 -44 50 -85 50 -90 0
-16 28 -9 34 9 3 9 10 24 16 32 19 29 126 205 133 220 12 24 115 194 127 207
5 7 10 15 10 17 0 3 19 36 42 73 23 38 46 77 52 88 9 16 89 149 223 370 7 11
15 27 19 35 4 8 27 45 51 83 24 37 43 72 43 77 0 6 5 10 10 10 6 0 10 4 10 9
0 7 236 405 311 526 11 17 22 38 25 48 4 9 10 17 15 17 5 0 9 4 9 8 0 10 123
220 139 239 6 7 11 15 11 17 0 3 19 36 42 73 22 38 49 82 58 98 44 77 65 110
71 115 3 3 9 15 13 28 4 12 11 22 16 22 4 0 10 8 13 18 4 9 20 40 37 67 17 28
33 58 37 68 3 9 9 17 14 17 5 0 9 7 9 15 0 8 4 15 9 15 5 0 11 8 14 18 4 9 30
56 59 104 102 168 138 231 138 239 0 5 5 9 10 9 6 0 10 7 10 15 0 8 5 15 10
15 6 0 10 5 10 10 0 6 23 47 50 91 28 44 50 85 50 90 0 5 4 9 9 9 5 0 11 8 15
18 3 9 10 24 16 32 5 8 59 98 120 200 60 102 114 190 120 197 5 7 10 15 10 18
0 3 23 42 50 86 28 44 50 82 50 83 0 2 35 61 78 132 43 71 84 139 91 152 l12
22 -2507 0 -2506 0 28 -47z"/>
</g>
</svg>
